<svg data-v-0dd9719b="" version="1.0" xmlns="http://www.w3.org/2000/svg" xmlns:xlink="http://www.w3.org/1999/xlink" width="100%" height="100%" viewBox="0 0 83 92" preserveAspectRatio="xMidYMid meet" color-interpolation-filters="sRGB" style="/* margin: auto; */">   <g data-v-0dd9719b="" fill="#333333" class="icon-text-wrapper icon-svg-group iconsvg" transform="translate(0,0)"><g class="iconsvg-imagesvg" transform="translate(0,0)"><g><rect fill="#333333" fill-opacity="0" stroke-width="2" x="0" y="0" width="60" height="66.32765863365023" class="image-rect"></rect> <svg filter="url(#colors9157064297)" x="0" y="0" width="60" height="66.32765863365023" filtersec="colorsf6991294630" class="image-svg-svg primary" style="overflow: visible;"><svg xmlns:dc="http://purl.org/dc/elements/1.1/" xmlns:svg="http://www.w3.org/2000/svg" xmlns:rdf="http://www.w3.org/1999/02/22-rdf-syntax-ns#" xmlns:cc="http://creativecommons.org/ns#" xmlns="http://www.w3.org/2000/svg" xmlns:xlink="http://www.w3.org/1999/xlink" version="1.2" baseProfile="tiny" x="0px" y="0px" viewBox="4.7700700759887695 -0.00048542022705078125 90.46092987060547 100.00048828125" xml:space="preserve"><g><path d="M8.771,40.628v53.955c0,3.002,2.416,5.417,5.417,5.417h75.624c3.001,0,5.419-2.415,5.419-5.417V40.628H8.771z    M84.396,86.896H19.605v-3.686h64.791V86.896z M84.396,78.606H19.605v-3.688h64.791V78.606z M84.396,67.714H19.605V51.462h64.791   V67.714z"></path><path d="M88.471,4.017c-0.777-2.899-3.735-4.607-6.634-3.83L8.79,19.76c-2.899,0.777-4.609,3.735-3.833,6.635l3.814,14.233   l83.514-22.377L88.471,4.017z M9.899,34.791l-2.43-9.069c-0.402-1.5,0.493-3.048,1.994-3.45l4.064-1.089L9.899,34.791z    M25.036,33.578l-6.724,1.802l4.446-16.67l6.607-1.771L25.036,33.578z M41.086,29.277l-6.771,1.814l4.446-16.67l6.771-1.814   L41.086,29.277z M57.039,25.002l-6.723,1.801l4.444-16.67l6.607-1.771L57.039,25.002z M73.088,20.703l-6.771,1.813l4.445-16.67   l6.77-1.813L73.088,20.703z M85.941,4.646c0.004,0.015,0.013,0.029,0.018,0.044L89.1,16.412l-6.779,1.817L85.941,4.646z"></path></g></svg></svg> <defs><filter id="colors9157064297"><feColorMatrix type="matrix" values="0 0 0 0 0.93359375  0 0 0 0 0.35546875  0 0 0 0 0.140625  0 0 0 1 0" class="icon-fecolormatrix"></feColorMatrix></filter> <filter id="colorsf6991294630"><feColorMatrix type="matrix" values="0 0 0 0 0.99609375  0 0 0 0 0.99609375  0 0 0 0 0.99609375  0 0 0 1 0" class="icon-fecolormatrix"></feColorMatrix></filter> <filter id="colorsb4436093759"><feColorMatrix type="matrix" values="0 0 0 0 0  0 0 0 0 0  0 0 0 0 0  0 0 0 1 0" class="icon-fecolormatrix"></feColorMatrix></filter></defs></g></g> <g transform="translate(63,37.1638298034668)"><g data-gra="path-name" fill-rule="" class="tp-name iconsvg-namesvg"><g transform="scale(1)"><g><path d="" transform="translate(0, 0)"></path></g> <!----> <!----> <!----> <!----> <!----> <!----> <!----></g></g> <!----></g></g></svg>