<svg data-v-0dd9719b="" version="1.0" xmlns="http://www.w3.org/2000/svg" xmlns:xlink="http://www.w3.org/1999/xlink" width="100%" height="100%" viewBox="0 0 317 92" preserveAspectRatio="xMidYMid meet" color-interpolation-filters="sRGB" style="margin: auto;">  <!----> <g data-v-0dd9719b="" fill="#333333" class="icon-text-wrapper icon-svg-group iconsvg" transform="translate(0,0)"><g class="iconsvg-imagesvg" transform="translate(0,0)"><g><rect fill="#333333" fill-opacity="0" stroke-width="2" x="0" y="0" width="60" height="66.32765863365023" class="image-rect"></rect> <svg filter="url(#colors8627883925)" x="0" y="0" width="60" height="66.32765863365023" filtersec="colorsf6615978284" class="image-svg-svg primary" style="overflow: visible;"><svg xmlns:dc="http://purl.org/dc/elements/1.1/" xmlns:svg="http://www.w3.org/2000/svg" xmlns:rdf="http://www.w3.org/1999/02/22-rdf-syntax-ns#" xmlns:cc="http://creativecommons.org/ns#" xmlns="http://www.w3.org/2000/svg" xmlns:xlink="http://www.w3.org/1999/xlink" version="1.2" baseProfile="tiny" x="0px" y="0px" viewBox="4.7700700759887695 -0.00048542022705078125 90.46092987060547 100.00048828125" xml:space="preserve"><g><path d="M8.771,40.628v53.955c0,3.002,2.416,5.417,5.417,5.417h75.624c3.001,0,5.419-2.415,5.419-5.417V40.628H8.771z    M84.396,86.896H19.605v-3.686h64.791V86.896z M84.396,78.606H19.605v-3.688h64.791V78.606z M84.396,67.714H19.605V51.462h64.791   V67.714z"></path><path d="M88.471,4.017c-0.777-2.899-3.735-4.607-6.634-3.83L8.79,19.76c-2.899,0.777-4.609,3.735-3.833,6.635l3.814,14.233   l83.514-22.377L88.471,4.017z M9.899,34.791l-2.43-9.069c-0.402-1.5,0.493-3.048,1.994-3.45l4.064-1.089L9.899,34.791z    M25.036,33.578l-6.724,1.802l4.446-16.67l6.607-1.771L25.036,33.578z M41.086,29.277l-6.771,1.814l4.446-16.67l6.771-1.814   L41.086,29.277z M57.039,25.002l-6.723,1.801l4.444-16.67l6.607-1.771L57.039,25.002z M73.088,20.703l-6.771,1.813l4.445-16.67   l6.77-1.813L73.088,20.703z M85.941,4.646c0.004,0.015,0.013,0.029,0.018,0.044L89.1,16.412l-6.779,1.817L85.941,4.646z"></path></g></svg></svg> <defs><filter id="colors8627883925"><feColorMatrix type="matrix" values="0 0 0 0 0.93359375  0 0 0 0 0.35546875  0 0 0 0 0.140625  0 0 0 1 0" class="icon-fecolormatrix"></feColorMatrix></filter> <filter id="colorsf6615978284"><feColorMatrix type="matrix" values="0 0 0 0 0.99609375  0 0 0 0 0.99609375  0 0 0 0 0.99609375  0 0 0 1 0" class="icon-fecolormatrix"></feColorMatrix></filter> <filter id="colorsb1840938751"><feColorMatrix type="matrix" values="0 0 0 0 0  0 0 0 0 0  0 0 0 0 0  0 0 0 1 0" class="icon-fecolormatrix"></feColorMatrix></filter></defs></g></g> <g transform="translate(67,9.43722915649414)"><g data-gra="path-name" fill-rule="" class="tp-name iconsvg-namesvg" transform="translate(0,0)"><g transform="scale(1)"><g><path d="M29.61-26.14L29.61-22.36 40.45-22.36 40.45-17.91 29.61-17.91 29.61-13.86 39.46-13.86 39.46-9.4 29.61-9.4 29.61-4.59 40.45-4.59 40.45-0.14 13.46-0.14 13.46-4.59 23.36-4.59 23.36-9.4 14.45-9.4 14.45-13.86 23.36-13.86 23.36-17.91 13.46-17.91 13.46-22.36 23.36-22.36 23.36-26.14 14.45-26.14 14.45-30.6 23.36-30.6 23.36-32.58 29.61-32.58 29.61-30.6 39.46-30.6 39.46-26.14 29.61-26.14ZM6.61-32.58L13.46-32.58 9.95-24.61 11.83-24.61 11.83 0.14 5.26 0.14 5.26-19.75 0.94-19.75 6.61-32.58ZM71.01-26.14L71.01-22.36 81.85-22.36 81.85-17.91 71.01-17.91 71.01-13.86 80.86-13.86 80.86-9.4 71.01-9.4 71.01-4.59 81.85-4.59 81.85-0.14 54.85-0.14 54.85-4.59 64.75-4.59 64.75-9.4 55.84-9.4 55.84-13.86 64.75-13.86 64.75-17.91 54.85-17.91 54.85-22.36 64.75-22.36 64.75-26.14 55.84-26.14 55.84-30.6 64.75-30.6 64.75-32.58 71.01-32.58 71.01-30.6 80.86-30.6 80.86-26.14 71.01-26.14ZM48.02-32.58L54.85-32.58 51.34-24.61 53.23-24.61 53.23 0.14 46.66 0.14 46.66-19.75 42.34-19.75 48.02-32.58ZM120.78-18.36L120.78-4.95Q120.78-3.92 120.4-3.01 120.01-2.11 119.34-1.44 118.66-0.77 117.76-0.38 116.86 0 115.83 0L115.83 0 94.81 0 94.81-18.36 120.78-18.36ZM114.52-5.35L114.52-14.45 101.07-14.45 101.07-3.92 113.13-3.92Q113.72-3.92 114.12-4.32 114.52-4.72 114.52-5.35L114.52-5.35ZM123.3-32.49L123.3-28.04 92.16-28.04 92.16-26.5 92.16-4.81 89.95 0.09 83.7 0.09 85.91-4.81 85.91-32.49 90.67-32.49 92.16-32.49 123.3-32.49ZM94.55-21.15L94.55-25.65 121.05-25.65 121.05-21.15 94.55-21.15ZM162.99-12.06L162.99-4.5Q162.99-3.6 162.65-2.83 162.31-2.07 161.75-1.51 161.19-0.94 160.4-0.61 159.61-0.27 158.76-0.27L158.76-0.27 132.88-0.27 126.31-0.27 126.31-4.63 126.31-12.06 126.31-12.6 126.31-16.47 162.99-16.47 162.99-16.38 162.99-12.06ZM156.42-6.08L156.42-12.06 132.88-12.06 132.88-4.63 155.02-4.63Q155.61-4.63 156.01-5.04 156.42-5.44 156.42-6.08L156.42-6.08ZM127.39-18.63L125.59-18.63 134.28-32.17 140.63-32.17 134.77-23.04 154.94-23.04 150.52-30.38 156.55-30.38 164.2-17.59 158.22-17.59 157.59-18.63 131.94-18.63 127.39-18.63Z" transform="translate(-0.940000057220459, 32.58000183105469)"></path></g> <!----> <!----> <!----> <!----> <!----> <!----> <!----></g></g> <g data-gra="path-slogan" fill-rule="" class="tp-slogan iconsvg-slogansvg" fill="#333333" transform="translate(0.989990234375,38.72000503540039)"><!----> <!----> <g transform="scale(1, 1)"><g transform="scale(1)"><path d="M0.18-1.87L0.18-2.70L1.23-2.70L1.23-2.10Q1.23-0.73 2.51-0.73L2.51-0.73Q3.84-0.73 3.84-2.19L3.84-2.19L3.84-8.36L4.98-8.36L4.98-2.24Q4.94 0.09 2.56 0.14L2.56 0.14Q0.32 0.09 0.18-1.87L0.18-1.87ZM6.14-8.36L7.28-8.36L7.28 0L6.14 0L6.14-8.36ZM13.96 0L13.14-2.42L9.76-2.42L8.89 0L7.75 0L10.90-8.36L12.18-8.36L15.20 0L13.96 0ZM11.45-7.13L10.12-3.43L12.73-3.43L11.49-7.13L11.45-7.13ZM14.75-1.87L14.75-2.70L15.80-2.70L15.80-2.10Q15.80-0.73 17.08-0.73L17.08-0.73Q18.41-0.73 18.41-2.19L18.41-2.19L18.41-8.36L19.55-8.36L19.55-2.24Q19.50 0.09 17.13 0.14L17.13 0.14Q14.89 0.09 14.75-1.87L14.75-1.87ZM20.70-8.36L21.84-8.36L21.84 0L20.70 0L20.70-8.36ZM28.53 0L27.71-2.42L24.32-2.42L23.45 0L22.31 0L25.47-8.36L26.75-8.36L29.76 0L28.53 0ZM26.01-7.13L24.69-3.43L27.29-3.43L26.06-7.13L26.01-7.13ZM35.63-7.45L33.62-7.45L33.62-4.85L35.63-4.85Q37.42-4.80 37.37-6.22L37.37-6.22Q37.37-7.45 35.63-7.45L35.63-7.45ZM36.09 0L32.48 0L32.48-8.36L36.18-8.36Q38.42-8.27 38.51-6.26L38.51-6.26Q38.51-5.03 37.42-4.53L37.42-4.53Q38.97-3.98 38.97-2.47L38.97-2.47Q38.83-0.09 36.09 0L36.09 0ZM35.82-3.89L33.62-3.89L33.62-0.96L36.05-0.96Q37.78-1.01 37.83-2.47L37.83-2.47Q37.83-3.89 35.82-3.89L35.82-3.89ZM45.01 0L44.19-2.42L40.81-2.42L39.94 0L38.80 0L41.95-8.36L43.23-8.36L46.25 0L45.01 0ZM42.50-7.13L41.17-3.43L43.78-3.43L42.55-7.13L42.50-7.13ZM53.48-5.90L53.48-5.90L52.38-5.90Q51.97-7.59 50.05-7.63L50.05-7.63Q47.40-7.50 47.31-4.25L47.31-4.25Q47.31-0.78 50.10-0.78L50.10-0.78Q52.02-0.82 52.48-3.11L52.48-3.11L53.57-3.11Q53.07 0.05 49.87 0.14L49.87 0.14Q46.21 0 46.12-4.21L46.12-4.21Q46.30-8.41 50.05-8.59L50.05-8.59Q53.02-8.50 53.48-5.90ZM56.60-4.21L55.27-2.97L55.27 0L54.13 0L54.13-8.36L55.27-8.36L55.27-4.30L59.34-8.36L60.94-8.36L57.42-4.98L61.03 0L59.52 0L56.60-4.21ZM62.41-1.01L67.44-1.01L67.44 0L61.27 0L61.27-8.36L67.35-8.36L67.35-7.40L62.41-7.40L62.41-4.80L66.99-4.80L66.99-3.79L62.41-3.79L62.41-1.01ZM69.51-8.36L73.72-1.60L73.72-8.36L74.81-8.36L74.81 0L73.53 0L69.28-6.76L69.24-6.76L69.24 0L68.14 0L68.14-8.36L69.51-8.36ZM79.21 0L75.83 0L75.83-8.36L79.26-8.36Q82.64-8.18 82.78-4.30L82.78-4.30Q82.59-0.09 79.21 0L79.21 0ZM79.07-7.45L76.97-7.45L76.97-0.96L79.16-0.96Q81.54-1.10 81.63-4.21L81.63-4.21Q81.59-7.36 79.07-7.45L79.07-7.45ZM93.95-8.36L93.95 0L92.85 0L92.85-4.94Q92.85-5.62 92.85-7.04L92.85-7.04L90.48 0L89.33 0L87.00-7.04L86.96-7.04Q86.96-6.54 87.00-5.53L87.00-5.53Q87.00-5.03 87.00-4.94L87.00-4.94L87.00 0L85.86 0L85.86-8.36L87.50-8.36L89.93-1.28L92.30-8.36L93.95-8.36ZM100.36 0L99.54-2.42L96.15-2.42L95.29 0L94.14 0L97.30-8.36L98.58-8.36L101.59 0L100.36 0ZM97.85-7.13L96.52-3.43L99.12-3.43L97.89-7.13L97.85-7.13ZM103.20-8.36L107.41-1.60L107.41-8.36L108.51-8.36L108.51 0L107.23 0L102.97-6.76L102.93-6.76L102.93 0L101.83 0L101.83-8.36L103.20-8.36ZM115.01 0L114.18-2.42L110.80-2.42L109.93 0L108.79 0L111.94-8.36L113.22-8.36L116.24 0L115.01 0ZM112.49-7.13L111.17-3.43L113.77-3.43L112.54-7.13L112.49-7.13ZM122.74-3.52L120.18-3.52L120.18-4.48L123.84-4.48L123.84 0L123.11 0L122.83-1.05Q121.87 0.09 120.09 0.14L120.09 0.14Q118.40 0.14 117.49-0.73L117.49-0.73Q116.11-2.01 116.16-4.25L116.16-4.25Q116.48-8.41 120.14-8.59L120.14-8.59Q123.24-8.41 123.70-5.85L123.70-5.85L122.60-5.85Q122.15-7.59 120.09-7.63L120.09-7.63Q117.49-7.45 117.35-4.21L117.35-4.21Q117.35-0.73 120.14-0.73L120.14-0.73Q121.14-0.73 121.87-1.28L121.87-1.28Q122.79-2.01 122.74-3.52L122.74-3.52ZM126.09-1.01L131.12-1.01L131.12 0L124.95 0L124.95-8.36L131.03-8.36L131.03-7.40L126.09-7.40L126.09-4.80L130.66-4.80L130.66-3.79L126.09-3.79L126.09-1.01ZM139.86-8.36L139.86 0L138.76 0L138.76-4.94Q138.76-5.62 138.76-7.04L138.76-7.04L136.38 0L135.24 0L132.91-7.04L132.86-7.04Q132.86-6.54 132.91-5.53L132.91-5.53Q132.91-5.03 132.91-4.94L132.91-4.94L132.91 0L131.77 0L131.77-8.36L133.41-8.36L135.83-1.28L138.21-8.36L139.86-8.36ZM142.02-1.01L147.04-1.01L147.04 0L140.87 0L140.87-8.36L146.95-8.36L146.95-7.40L142.02-7.40L142.02-4.80L146.59-4.80L146.59-3.79L142.02-3.79L142.02-1.01ZM149.11-8.36L153.32-1.60L153.32-8.36L154.41-8.36L154.41 0L153.13 0L148.88-6.76L148.84-6.76L148.84 0L147.74 0L147.74-8.36L149.11-8.36ZM157.53-7.40L154.70-7.40L154.70-8.36L161.46-8.36L161.46-7.40L158.63-7.40L158.63 0L157.53 0L157.53-7.40Z" transform="translate(-0.1828339258506856, 8.593194514982224)"></path></g></g></g></g></g></svg>