<svg xmlns="http://www.w3.org/2000/svg" xmlns:xlink="http://www.w3.org/1999/xlink" data-v-0dd9719b="" version="1.0" preserveAspectRatio="xMidYMid meet" color-interpolation-filters="sRGB" style="margin: auto;" width="210px" height="60px">   <g data-v-0dd9719b="" fill="#e83e2e" class="pmspacesvg" transform="translate(0,0)"><!----> <g><g transform="translate(0,0)" mask="url(#d98846cc-f96e-47e2-aef1-04b190fe2689)"><g><rect data-gra="graph-name" fill="#e83e2e" x="0" y="0" rx="29.979999542236328" ry="29.979999542236328" width="209.1599884033203" height="59.959999084472656"/></g> <g data-gra="path-name" fill-rule="" class="tp-name" transform="translate(20,10)"><g transform="scale(1)"><g><path d="M13.28-13.18L8.91-12.82 8.41-29.07 13.37-28.98 13.37-28.62 16.61-28.75 19.84-33.48 23.18-30.96 21.42-28.98 31.72-29.47 36.54-27.04 35.32-13.37 31.18-13.09 31.18-13.63 13.28-13.5 13.28-13.18ZM31.59-25.47L13.32-24.93 13.32-22.72 28.57-23.49 28.21-19.26 13.32-18.95 13.28-16.96 31.32-17.46 31.59-25.47ZM39.64 2.97L36.54 6.48 25.15-3.1 24.84 5.85 20.79 6.48 16.52 4.46 17.73 1.62 20.79 2.38 20.7-13.28 25.47-12.78 25.29-7.83 27.36-6.25 33.12-12.2 36.05-9.31 30.15-4.14 39.64 2.97ZM17.14-10.39L20.38-6.66 8.1 6.08 5.35 3.38 14.49-6.34 5.8-5.89 5.44-9.9 17.14-10.39ZM85.45-17.55L87.3-17.64 87.07-13.9 85.14-13.86 84.64-8.69 81-8.41 81-8.69 77.85-8.64 77.85-7.47 74.11-7.02 74.11-8.55 68.67-8.46 68.27-11.52 74.07-11.65 74.03-13.68 67.09-13.54 66.69 0.49 64.31 6.34 60.66 4.32 63.18-0.67 62.91-29.65 67.55-29.25 67.55-28.66 73.89-28.93 72.05-31.27 75.15-33.34 77.81-29.07 87.25-29.47 86.94-25.2 67.41-24.88 67.19-16.83 73.98-17.1 73.98-19.26 68.85-19.13 68.49-22.54 73.94-22.63 73.89-24.7 78.07-24.48 78.03-22.72 81.77-22.77 85.77-20.84 85.45-17.55ZM61.16-5.49L62.19-2.11 49.23 3.19 47.74-1.57 53.1-3.15 52.88-17.82 48.24-17.86 47.7-21.6 52.83-21.96 52.7-31.54 57.51-30.87 57.24-22.27 61.56-22.59 61.2-17.68 57.11-17.73 56.74-4.18 61.16-5.49ZM77.98-19.35L77.98-17.28 81.5-17.41 81.59-19.39 77.98-19.35ZM81.18-11.83L81.27-13.81 77.94-13.72 77.89-11.74 81.18-11.83ZM71.59-6.17L81.63-6.88 85.63-5.31 85.05 5.71 81.41 6.03 81.41 5.54 71.37 5.63 71.37 5.98 68.04 6.25 67.68-6.61 71.59-6.48 71.59-6.17ZM71.41 2.56L81.5 2.16 81.59-3.1 71.55-2.92 71.41 2.56ZM110.66 1.48L110.84-33.07 115.65-32.58 114.84 4.91 110.66 6.08 105.66 3.96 106.74 0.81 110.66 1.48ZM102.42-22.63L105.89-20.75 97.88-3.06 93.47-5.4 102.42-22.63ZM123.03-22.36L131.53-5.4 127.13-3.06 119.56-20.47 123.03-22.36ZM174.51-17.41L174.01-12.2 161.06-12.11 160.47 5.71 155.79 6.03 149.13 2.88 150.79-0.67 155.84 1.03 155.93-12.06 141.16-11.97 140.49-16.38 155.97-16.83 155.97-18.54 157.81-18.27 164.52-28.44 146.07-27.86 145.31-32.58 167.53-32.98 171.68-28.8 162.63-17.05 174.51-17.41Z" transform="translate(-5.349999904632568, 33.47999954223633)"/></g> <!----> <!----> <!----> <!----> <!----> <!----> <!----></g></g></g> </g></g><mask id="d98846cc-f96e-47e2-aef1-04b190fe2689"><g fill="white"><rect data-gra="graph-name" x="0" y="0" rx="29.979999542236328" ry="29.979999542236328" width="209.1599884033203" height="59.959999084472656"/></g> <g data-gra="path-name" fill-rule="" class="tp-name" transform="translate(20,10)" fill="black"><g transform="scale(1)"><g><path d="M13.28-13.18L8.91-12.82 8.41-29.07 13.37-28.98 13.37-28.62 16.61-28.75 19.84-33.48 23.18-30.96 21.42-28.98 31.72-29.47 36.54-27.04 35.32-13.37 31.18-13.09 31.18-13.63 13.28-13.5 13.28-13.18ZM31.59-25.47L13.32-24.93 13.32-22.72 28.57-23.49 28.21-19.26 13.32-18.95 13.28-16.96 31.32-17.46 31.59-25.47ZM39.64 2.97L36.54 6.48 25.15-3.1 24.84 5.85 20.79 6.48 16.52 4.46 17.73 1.62 20.79 2.38 20.7-13.28 25.47-12.78 25.29-7.83 27.36-6.25 33.12-12.2 36.05-9.31 30.15-4.14 39.64 2.97ZM17.14-10.39L20.38-6.66 8.1 6.08 5.35 3.38 14.49-6.34 5.8-5.89 5.44-9.9 17.14-10.39ZM85.45-17.55L87.3-17.64 87.07-13.9 85.14-13.86 84.64-8.69 81-8.41 81-8.69 77.85-8.64 77.85-7.47 74.11-7.02 74.11-8.55 68.67-8.46 68.27-11.52 74.07-11.65 74.03-13.68 67.09-13.54 66.69 0.49 64.31 6.34 60.66 4.32 63.18-0.67 62.91-29.65 67.55-29.25 67.55-28.66 73.89-28.93 72.05-31.27 75.15-33.34 77.81-29.07 87.25-29.47 86.94-25.2 67.41-24.88 67.19-16.83 73.98-17.1 73.98-19.26 68.85-19.13 68.49-22.54 73.94-22.63 73.89-24.7 78.07-24.48 78.03-22.72 81.77-22.77 85.77-20.84 85.45-17.55ZM61.16-5.49L62.19-2.11 49.23 3.19 47.74-1.57 53.1-3.15 52.88-17.82 48.24-17.86 47.7-21.6 52.83-21.96 52.7-31.54 57.51-30.87 57.24-22.27 61.56-22.59 61.2-17.68 57.11-17.73 56.74-4.18 61.16-5.49ZM77.98-19.35L77.98-17.28 81.5-17.41 81.59-19.39 77.98-19.35ZM81.18-11.83L81.27-13.81 77.94-13.72 77.89-11.74 81.18-11.83ZM71.59-6.17L81.63-6.88 85.63-5.31 85.05 5.71 81.41 6.03 81.41 5.54 71.37 5.63 71.37 5.98 68.04 6.25 67.68-6.61 71.59-6.48 71.59-6.17ZM71.41 2.56L81.5 2.16 81.59-3.1 71.55-2.92 71.41 2.56ZM110.66 1.48L110.84-33.07 115.65-32.58 114.84 4.91 110.66 6.08 105.66 3.96 106.74 0.81 110.66 1.48ZM102.42-22.63L105.89-20.75 97.88-3.06 93.47-5.4 102.42-22.63ZM123.03-22.36L131.53-5.4 127.13-3.06 119.56-20.47 123.03-22.36ZM174.51-17.41L174.01-12.2 161.06-12.11 160.47 5.71 155.79 6.03 149.13 2.88 150.79-0.67 155.84 1.03 155.93-12.06 141.16-11.97 140.49-16.38 155.97-16.83 155.97-18.54 157.81-18.27 164.52-28.44 146.07-27.86 145.31-32.58 167.53-32.98 171.68-28.8 162.63-17.05 174.51-17.41Z" transform="translate(-5.349999904632568, 33.47999954223633)"/></g>       </g></g></mask></svg>